<svg xmlns="http://www.w3.org/2000/svg" viewBox="0 0 24 24" fill="none" stroke="#059669" stroke-width="2" stroke-linecap="round" stroke-linejoin="round">
  <rect width="24" height="24" rx="6" fill="#ecfdf5" stroke="none"/>
  <path d="M7 20h10" transform="translate(0 0)"/>
  <path d="M10 20c5.5-2.5.8-6.4 3-10" />
  <path d="M9.5 9.4c1.1.8 1.8 2.2 2.3 3.7-2 .4-3.5.4-4.8-.3-1.2-.6-2.3-1.9-3-4.2 2.8-.5 4.4 0 5.5.8z" />
  <path d="M14.1 6c-.9 1.4-1.5 3-1.4 4.5 1.6-.1 3-.3 4.3-1.6 1.2-1.2 2.1-3 2.4-5.8-2.8.4-4.4 1.5-5.3 2.9z" />
</svg>
